<svg xmlns="http://www.w3.org/2000/svg" xmlns:xlink="http://www.w3.org/1999/xlink" width="250" zoomAndPan="magnify" viewBox="0 0 187.5 187.499992" height="250" preserveAspectRatio="xMidYMid meet" version="1.0"><defs><clipPath id="b581d47ad5"><path d="M 3.460938 58 L 184.210938 58 L 184.210938 187 L 3.460938 187 Z M 3.460938 58 " clip-rule="nonzero"/></clipPath><clipPath id="45963919eb"><path d="M 3.460938 2.765625 L 184.210938 2.765625 L 184.210938 59 L 3.460938 59 Z M 3.460938 2.765625 " clip-rule="nonzero"/></clipPath></defs><g clip-path="url(#b581d47ad5)"><path fill="#ff8210" d="M 184.222656 187.289062 L 3.449219 187.289062 L 3.449219 58.089844 L 184.222656 58.089844 L 184.222656 187.289062 " fill-opacity="1" fill-rule="nonzero"/></g><path fill="#eef1f1" d="M 104.355469 92.761719 C 104.484375 92.09375 104.558594 91.402344 104.558594 90.695312 C 104.558594 84.785156 99.757812 79.996094 93.835938 79.996094 C 87.914062 79.996094 83.113281 84.785156 83.113281 90.695312 C 83.113281 91.402344 83.1875 92.09375 83.316406 92.761719 C 64.21875 97.089844 49.511719 112.933594 46.910156 132.59375 L 140.761719 132.59375 C 138.160156 112.933594 123.453125 97.089844 104.355469 92.761719 " fill-opacity="1" fill-rule="nonzero"/><path fill="#eef1f1" d="M 151.460938 135.710938 L 36.210938 135.710938 C 33.992188 135.710938 32.191406 137.511719 32.191406 139.726562 C 32.191406 141.941406 33.992188 143.738281 36.210938 143.738281 L 151.460938 143.738281 C 153.683594 143.738281 155.484375 141.941406 155.484375 139.726562 C 155.484375 137.511719 153.683594 135.710938 151.460938 135.710938 " fill-opacity="1" fill-rule="nonzero"/><g clip-path="url(#45963919eb)"><path fill="#f36805" d="M 113.640625 26.859375 L 74.035156 26.859375 C 68.460938 26.859375 63.945312 22.996094 63.945312 18.226562 C 63.945312 13.460938 68.460938 9.59375 74.035156 9.59375 L 113.640625 9.59375 C 119.210938 9.59375 123.726562 13.460938 123.726562 18.226562 C 123.726562 22.996094 119.210938 26.859375 113.640625 26.859375 Z M 142.828125 28.753906 L 142.828125 19.300781 C 142.828125 10.191406 135.425781 2.804688 126.292969 2.804688 L 61.375 2.804688 C 52.246094 2.804688 44.84375 10.191406 44.84375 19.300781 L 44.84375 28.753906 L 3.449219 58.089844 L 184.222656 58.089844 L 142.828125 28.753906 " fill-opacity="1" fill-rule="nonzero"/></g></svg>